<svg width="100" height="100" viewBox="0 0 100 100" fill="none" xmlns="http://www.w3.org/2000/svg">
<path d="M85.4171 25H14.5833" stroke="#D22828" stroke-width="6" stroke-linecap="round"/>
<path d="M39.5833 45.8333L41.6667 66.6667" stroke="#D22828" stroke-width="6" stroke-linecap="round"/>
<path d="M60.4167 45.8333L58.3333 66.6667" stroke="#D22828" stroke-width="6" stroke-linecap="round"/>
<path d="M27.0833 25C27.3162 25 27.4326 25 27.5381 24.9973C30.9691 24.9104 33.9959 22.7288 35.1634 19.5013C35.1993 19.402 35.2361 19.2916 35.3097 19.0707L35.7143 17.8571C36.0596 16.8212 36.2323 16.3032 36.4613 15.8633C37.375 14.1086 39.0656 12.8902 41.0192 12.5782C41.5089 12.5 42.055 12.5 43.1471 12.5H56.8529C57.945 12.5 58.4912 12.5 58.9808 12.5782C60.9346 12.8902 62.625 14.1086 63.5387 15.8633C63.7679 16.3032 63.9404 16.8212 64.2858 17.8571L64.6904 19.0707C64.7637 19.2913 64.8008 19.4021 64.8367 19.5013C66.0042 22.7288 69.0308 24.9104 72.4621 24.9973C72.5675 25 72.6837 25 72.9167 25" stroke="#D22828" stroke-width="6"/>
<path d="M76.5562 64.1629C75.8187 75.225 75.45 80.7563 71.8458 84.1279C68.2417 87.5 62.6983 87.5 51.6117 87.5H48.3892C37.3025 87.5 31.7592 87.5 28.155 84.1279C24.5507 80.7563 24.182 75.225 23.4445 64.1629L21.5281 35.4167M78.4725 35.4167L77.6392 47.9167" stroke="#D22828" stroke-width="6" stroke-linecap="round"/>
</svg>
