<svg width="100" height="100" viewBox="0 0 100 100" fill="none" xmlns="http://www.w3.org/2000/svg">
<g clip-path="url(#clip0_2_2)">
<path fill-rule="evenodd" clip-rule="evenodd" d="M25 31.25C21.55 31.25 18.75 28.45 18.75 25C18.75 21.55 21.55 18.75 25 18.75C28.45 18.75 31.25 21.55 31.25 25C31.25 28.45 28.45 31.25 25 31.25ZM25 12.5C18.0969 12.5 12.5 18.0969 12.5 25C12.5 31.9031 18.0969 37.5 25 37.5C31.9031 37.5 37.5 31.9031 37.5 25C37.5 18.0969 31.9031 12.5 25 12.5ZM93.75 53.525L75 34.375L43.9343 65.9719L31.25 53.125L6.25 76.0531V12.5C6.25 9.05 9.05 6.25 12.5 6.25H87.5C90.95 6.25 93.75 9.05 93.75 12.5V53.525ZM93.75 87.5C93.75 90.95 90.95 93.75 87.5 93.75H71.35L48.325 70.4219L75 43.7469L93.75 62.4969V87.5ZM12.5 93.75C9.05 93.75 6.25 90.95 6.25 87.5V84.5656L31.0781 62.3281L62.5031 93.75H12.5ZM87.5 0H12.5C5.59687 0 0 5.59687 0 12.5V87.5C0 94.4031 5.59687 100 12.5 100H87.5C94.4031 100 100 94.4031 100 87.5V12.5C100 5.59687 94.4031 0 87.5 0Z" fill="white"/>
</g>
<defs>
<clipPath id="clip0_2_2">
<rect width="100" height="100" fill="white"/>
</clipPath>
</defs>
</svg>
