<svg width="100" height="100" viewBox="0 0 100 100" fill="none" xmlns="http://www.w3.org/2000/svg">
<mask id="mask0_1_25" style="mask-type:alpha" maskUnits="userSpaceOnUse" x="0" y="0" width="100" height="100">
<circle cx="50" cy="50" r="50" fill="#CCCCCC"/>
</mask>
<g mask="url(#mask0_1_25)">
<circle cx="50" cy="50" r="50" fill="#CCCCCC"/>
<rect x="42" width="15" height="10" fill="#50507C"/>
<rect x="42" y="90" width="15" height="10" fill="#50507C"/>
<rect x="2" y="30.9904" width="15" height="10" transform="rotate(-60 2 30.9904)" fill="#50507C"/>
<rect x="80" y="77.9904" width="15" height="10" transform="rotate(-60 80 77.9904)" fill="#50507C"/>
<rect x="9.5" y="79.9904" width="15" height="10" transform="rotate(-120 9.5 79.9904)" fill="#50507C"/>
<rect x="87.5" y="34.9904" width="15" height="10" transform="rotate(-120 87.5 34.9904)" fill="#50507C"/>
</g>
<circle cx="50" cy="50" r="35" fill="#B3B3B3"/>
<circle cx="50" cy="50" r="30" fill="#CCCCCC"/>
<path d="M28.54 58V42.16H30.839V48.991H38.759V42.16H41.069V58H38.759V51.158H30.839V58H28.54ZM50.6381 58.33C49.5748 58.33 48.5958 58.1467 47.7011 57.78C46.8065 57.406 46.0291 56.8633 45.3691 56.152C44.7091 55.4407 44.1958 54.5753 43.8291 53.556C43.4625 52.5367 43.2791 51.378 43.2791 50.08C43.2791 48.3713 43.5908 46.9047 44.2141 45.68C44.8375 44.448 45.7028 43.502 46.8101 42.842C47.9175 42.1747 49.1935 41.841 50.6381 41.841C52.5008 41.841 53.9858 42.2737 55.0931 43.139C56.2078 44.0043 56.9668 45.1997 57.3701 46.725L55.0381 47.143C54.7155 46.197 54.1948 45.4417 53.4761 44.877C52.7575 44.3123 51.8555 44.0263 50.7701 44.019C49.6481 44.0117 48.7131 44.261 47.9651 44.767C47.2245 45.273 46.6671 45.9843 46.2931 46.901C45.9191 47.8103 45.7285 48.87 45.7211 50.08C45.7138 51.29 45.8971 52.3497 46.2711 53.259C46.6451 54.161 47.2061 54.865 47.9541 55.371C48.7095 55.877 49.6481 56.1337 50.7701 56.141C51.6721 56.1557 52.4458 55.9907 53.0911 55.646C53.7438 55.294 54.2608 54.7807 54.6421 54.106C55.0235 53.4313 55.2691 52.6027 55.3791 51.62H52.2991V49.772H57.8211C57.8358 49.904 57.8468 50.08 57.8541 50.3C57.8615 50.5127 57.8651 50.6483 57.8651 50.707C57.8651 52.1737 57.5828 53.4827 57.0181 54.634C56.4535 55.7853 55.6321 56.691 54.5541 57.351C53.4761 58.0037 52.1708 58.33 50.6381 58.33ZM63.5769 58V44.327H58.3079V42.16H71.1449V44.327H65.8759V58H63.5769Z" fill="#50507C"/>
</svg>
