<svg width="100" height="100" viewBox="0 0 100 100" fill="none" xmlns="http://www.w3.org/2000/svg">
<path d="M88.6662 26.6669L48.9162 66.4167C44.9579 70.375 33.2078 72.2083 30.5828 69.5833C27.9578 66.9583 29.7495 55.2083 33.7078 51.25L73.4996 11.4584C74.4808 10.3878 75.6687 9.52725 76.9921 8.9285C78.315 8.32975 79.7458 8.00517 81.1979 7.97458C82.6496 7.94404 84.0929 8.20796 85.44 8.7505C86.7871 9.29304 88.0104 10.103 89.0358 11.1314C90.0613 12.1597 90.8679 13.3851 91.4067 14.7337C91.9454 16.0823 92.2058 17.5261 92.1712 18.978C92.1367 20.4298 91.8079 21.8598 91.2058 23.1812C90.6033 24.5027 89.7396 25.6885 88.6662 26.6669Z" stroke="white" stroke-width="6" stroke-linecap="round" stroke-linejoin="round"/>
<path d="M45.8333 16.6667H25C20.5797 16.6667 16.3408 18.4226 13.2151 21.5482C10.0895 24.6738 8.33334 28.913 8.33334 33.3333V75C8.33334 79.4204 10.0895 83.6596 13.2151 86.785C16.3408 89.9108 20.5797 91.6667 25 91.6667H70.8333C80.0417 91.6667 83.3333 84.1667 83.3333 75V54.1667" stroke="white" stroke-width="6" stroke-linecap="round" stroke-linejoin="round"/>
</svg>
